# xmcd CD database file generated by OrangeCD 5.2
#
# Track frame offsets:
#	150
#	20497
#	37351
#	56940
#	75432
#	99563
#	114491
#	138126
#	156871
#	176157
#	186126
#
# Disc length: 2705 seconds
#
# Revision: 0
# Processed by: cddbd v1.5.1PL2 Copyright (c) Steve Scherf et al.
# Submitted via: OrangeCD 5.2
#
DISCID=930a8f0b
DTITLE=Lon Hannah - 'Cause I Always Wanted To
DYEAR=2006
DGENRE=Country
TTITLE0=The Wonder of You
TTITLE1=Slappin' Leather
TTITLE2=Compadres in the Old Sierra Madre
TTITLE3=I'll Leave the Light On
TTITLE4=The Vaquero Song
TTITLE5=(Our Love Is) A Little Like That
TTITLE6=I Ride an Old Paint
TTITLE7=50 Years Ago
TTITLE8=Cowboy Christmas
TTITLE9=Forgettin' 'Bout You
TTITLE10=Colorado Trail
EXTD=
EXTT0=
EXTT1=
EXTT2=
EXTT3=
EXTT4=
EXTT5=
EXTT6=
EXTT7=
EXTT8=
EXTT9=
EXTT10=
PLAYORDER=
